<svg width="1440" height="800" viewBox="0 0 1440 800" fill="none" xmlns="http://www.w3.org/2000/svg">
    <g opacity="0.9" filter="url(#filter0_f_2_10)">
        <path d="M140 835H1300L890 582.733L905 410.091L720 74L535 410.091L550 582.733L140 835Z" fill="url(#paint0_radial_2_10)"/>
    </g>
    <g opacity="0.1" filter="url(#filter1_f_2_10)">
        <path d="M0 835H1440L950.943 582.733L971.321 410.091L720 74L468.679 410.091L489.057 582.733L0 835Z" fill="#011C62"/>
    </g>
    <g opacity="0.3" filter="url(#filter2_f_2_10)">
        <path d="M78 916H1341L1005.79 674.759L826.009 468.851L720 68L613.991 468.851L434.208 674.759L78 916Z" fill="url(#paint1_linear_2_10)"/>
    </g>
    <g opacity="0.5" filter="url(#filter3_f_2_10)">
        <path d="M110.242 1038L536.058 812.83C538.534 811.521 540.622 809.585 542.115 807.217L669.841 604.571C671.05 602.653 671.838 600.5 672.152 598.254L720 255.811L767.848 598.254C768.162 600.5 768.95 602.653 770.159 604.572L897.93 807.288C899.366 809.566 901.354 811.445 903.709 812.751L1310.07 1038H720H110.242ZM1310.17 1038.07L1310.17 1038.07C1310.18 1038.07 1310.18 1038.07 1310.18 1038.07L1310.17 1038.07Z" stroke="url(#paint2_linear_2_10)" stroke-width="16"/>
    </g>
    <defs>
        <filter id="filter0_f_2_10" x="-60" y="-126" width="1560" height="1161" filterUnits="userSpaceOnUse" color-interpolation-filters="sRGB">
            <feFlood flood-opacity="0" result="BackgroundImageFix"/>
            <feBlend mode="normal" in="SourceGraphic" in2="BackgroundImageFix" result="shape"/>
            <feGaussianBlur stdDeviation="100" result="effect1_foregroundBlur_2_10"/>
        </filter>
        <filter id="filter1_f_2_10" x="-280" y="-206" width="2000" height="1321" filterUnits="userSpaceOnUse" color-interpolation-filters="sRGB">
            <feFlood flood-opacity="0" result="BackgroundImageFix"/>
            <feBlend mode="normal" in="SourceGraphic" in2="BackgroundImageFix" result="shape"/>
            <feGaussianBlur stdDeviation="140" result="effect1_foregroundBlur_2_10"/>
        </filter>
        <filter id="filter2_f_2_10" x="-2" y="-12" width="1423" height="1008" filterUnits="userSpaceOnUse" color-interpolation-filters="sRGB">
            <feFlood flood-opacity="0" result="BackgroundImageFix"/>
            <feBlend mode="normal" in="SourceGraphic" in2="BackgroundImageFix" result="shape"/>
            <feGaussianBlur stdDeviation="40" result="effect1_foregroundBlur_2_10"/>
        </filter>
        <filter id="filter3_f_2_10" x="38.2295" y="134" width="1343.85" height="976" filterUnits="userSpaceOnUse" color-interpolation-filters="sRGB">
            <feFlood flood-opacity="0" result="BackgroundImageFix"/>
            <feBlend mode="normal" in="SourceGraphic" in2="BackgroundImageFix" result="shape"/>
            <feGaussianBlur stdDeviation="32" result="effect1_foregroundBlur_2_10"/>
        </filter>
        <radialGradient id="paint0_radial_2_10" cx="0" cy="0" r="1" gradientUnits="userSpaceOnUse" gradientTransform="translate(720 460.147) rotate(90) scale(324.853 369.999)">
            <stop stop-color="#3F6CFF"/>
            <stop offset="1" stop-color="#001B7B"/>
        </radialGradient>
        <linearGradient id="paint1_linear_2_10" x1="720" y1="68" x2="720" y2="916" gradientUnits="userSpaceOnUse">
            <stop stop-color="white"/>
            <stop offset="1" stop-color="white" stop-opacity="0"/>
        </linearGradient>
        <linearGradient id="paint2_linear_2_10" x1="709.5" y1="198" x2="709.5" y2="1046" gradientUnits="userSpaceOnUse">
            <stop stop-color="white"/>
            <stop offset="0.847573" stop-color="white" stop-opacity="0"/>
        </linearGradient>
    </defs>
</svg>
